<svg xmlns="http://www.w3.org/2000/svg" xmlns:xlink="http://www.w3.org/1999/xlink" width="200" zoomAndPan="magnify" viewBox="0 0 150 149.999998" height="200" preserveAspectRatio="xMidYMid meet" version="1.0"><defs><g/><clipPath id="9664fb0fdc"><path d="M 30.023438 58.425781 L 47 58.425781 L 47 75 L 30.023438 75 Z M 30.023438 58.425781 " clip-rule="nonzero"/></clipPath><clipPath id="338f73ac02"><path d="M 30.023438 74 L 47 74 L 47 91.425781 L 30.023438 91.425781 Z M 30.023438 74 " clip-rule="nonzero"/></clipPath><clipPath id="7f91289017"><path d="M 46 58.425781 L 63.023438 58.425781 L 63.023438 75 L 46 75 Z M 46 58.425781 " clip-rule="nonzero"/></clipPath><clipPath id="f611d49d35"><path d="M 46 74 L 63.023438 74 L 63.023438 91.425781 L 46 91.425781 Z M 46 74 " clip-rule="nonzero"/></clipPath></defs><g clip-path="url(#9664fb0fdc)"><path fill="#ffac2d" d="M 38.308594 74.996094 C 33.734375 74.996094 30.023438 71.285156 30.023438 66.710938 C 30.023438 62.136719 33.734375 58.425781 38.308594 58.425781 C 42.882812 58.425781 46.59375 62.136719 46.59375 66.710938 C 46.59375 71.285156 42.882812 74.996094 38.308594 74.996094 Z M 38.308594 74.996094 " fill-opacity="1" fill-rule="nonzero"/></g><g clip-path="url(#338f73ac02)"><path fill="#ffac2d" d="M 46.59375 83.28125 C 46.59375 87.855469 42.882812 91.566406 38.308594 91.566406 C 33.734375 91.566406 30.023438 87.855469 30.023438 83.28125 C 30.023438 78.707031 33.734375 74.996094 38.308594 74.996094 C 42.882812 74.996094 46.59375 78.707031 46.59375 83.28125 Z M 46.59375 83.28125 " fill-opacity="1" fill-rule="nonzero"/></g><g clip-path="url(#7f91289017)"><path fill="#f2cc59" d="M 46.59375 66.710938 C 46.59375 62.136719 50.304688 58.425781 54.878906 58.425781 C 59.453125 58.425781 63.164062 62.136719 63.164062 66.710938 C 63.164062 71.285156 59.453125 74.996094 54.878906 74.996094 C 50.304688 74.996094 46.59375 71.285156 46.59375 66.710938 Z M 46.59375 66.710938 " fill-opacity="1" fill-rule="nonzero"/></g><g clip-path="url(#f611d49d35)"><path fill="#ffac2d" d="M 63.164062 83.28125 C 63.164062 87.855469 59.453125 91.566406 54.878906 91.566406 C 50.304688 91.566406 46.59375 87.855469 46.59375 83.28125 C 46.59375 78.707031 50.304688 74.996094 54.878906 74.996094 C 59.453125 74.996094 63.164062 78.707031 63.164062 83.28125 Z M 63.164062 83.28125 " fill-opacity="1" fill-rule="nonzero"/></g><g fill="#f2cc59" fill-opacity="1"><g transform="translate(67.318812, 81.824162)"><g><path d="M 8.984375 0 C 8.816406 0 8.707031 -0.0820312 8.65625 -0.25 L 8.15625 -1.875 C 8.144531 -1.9375 8.109375 -1.96875 8.046875 -1.96875 L 3.75 -1.96875 C 3.6875 -1.96875 3.648438 -1.9375 3.640625 -1.875 L 3.140625 -0.25 C 3.085938 -0.0820312 2.976562 0 2.8125 0 L 0.78125 0 C 0.664062 0 0.582031 -0.03125 0.53125 -0.09375 C 0.488281 -0.15625 0.488281 -0.234375 0.53125 -0.328125 L 4.265625 -12.0625 C 4.328125 -12.226562 4.441406 -12.3125 4.609375 -12.3125 L 7.1875 -12.3125 C 7.351562 -12.3125 7.46875 -12.226562 7.53125 -12.0625 L 11.265625 -0.328125 C 11.273438 -0.304688 11.28125 -0.273438 11.28125 -0.234375 C 11.28125 -0.160156 11.253906 -0.101562 11.203125 -0.0625 C 11.160156 -0.0195312 11.097656 0 11.015625 0 Z M 4.25 -4.015625 C 4.238281 -3.929688 4.269531 -3.890625 4.34375 -3.890625 L 7.453125 -3.890625 C 7.523438 -3.890625 7.554688 -3.929688 7.546875 -4.015625 L 5.953125 -9.375 C 5.941406 -9.414062 5.921875 -9.4375 5.890625 -9.4375 C 5.867188 -9.4375 5.84375 -9.414062 5.8125 -9.375 Z M 4.25 -4.015625 "/></g></g></g><g fill="#f2cc59" fill-opacity="1"><g transform="translate(78.411506, 81.824162)"><g><path d="M 5.203125 -12.453125 C 6.097656 -12.453125 6.882812 -12.269531 7.5625 -11.90625 C 8.238281 -11.539062 8.765625 -11.023438 9.140625 -10.359375 C 9.515625 -9.691406 9.703125 -8.914062 9.703125 -8.03125 L 9.703125 -4.09375 C 9.703125 -3.050781 9.421875 -2.171875 8.859375 -1.453125 C 8.296875 -0.734375 7.53125 -0.253906 6.5625 -0.015625 C 6.5 0.00390625 6.46875 0.0390625 6.46875 0.09375 L 6.46875 1.421875 C 6.46875 1.617188 6.367188 1.71875 6.171875 1.71875 L 4.296875 1.71875 C 4.085938 1.71875 3.984375 1.617188 3.984375 1.421875 L 3.984375 0.109375 C 3.984375 0.0546875 3.957031 0.0195312 3.90625 0 C 2.925781 -0.238281 2.148438 -0.71875 1.578125 -1.4375 C 1.003906 -2.164062 0.71875 -3.050781 0.71875 -4.09375 L 0.71875 -8.03125 C 0.71875 -8.914062 0.90625 -9.6875 1.28125 -10.34375 C 1.65625 -11.007812 2.179688 -11.523438 2.859375 -11.890625 C 3.546875 -12.265625 4.328125 -12.453125 5.203125 -12.453125 Z M 7.21875 -8.15625 C 7.21875 -8.800781 7.035156 -9.320312 6.671875 -9.71875 C 6.304688 -10.113281 5.816406 -10.3125 5.203125 -10.3125 C 4.609375 -10.3125 4.125 -10.113281 3.75 -9.71875 C 3.382812 -9.320312 3.203125 -8.800781 3.203125 -8.15625 L 3.203125 -4.15625 C 3.203125 -3.507812 3.382812 -2.984375 3.75 -2.578125 C 4.125 -2.179688 4.609375 -1.984375 5.203125 -1.984375 C 5.816406 -1.984375 6.304688 -2.179688 6.671875 -2.578125 C 7.035156 -2.984375 7.21875 -3.507812 7.21875 -4.15625 Z M 7.21875 -8.15625 "/></g></g></g><g fill="#f2cc59" fill-opacity="1"><g transform="translate(88.132988, 81.824162)"><g><path d="M 8.984375 0 C 8.816406 0 8.707031 -0.0820312 8.65625 -0.25 L 8.15625 -1.875 C 8.144531 -1.9375 8.109375 -1.96875 8.046875 -1.96875 L 3.75 -1.96875 C 3.6875 -1.96875 3.648438 -1.9375 3.640625 -1.875 L 3.140625 -0.25 C 3.085938 -0.0820312 2.976562 0 2.8125 0 L 0.78125 0 C 0.664062 0 0.582031 -0.03125 0.53125 -0.09375 C 0.488281 -0.15625 0.488281 -0.234375 0.53125 -0.328125 L 4.265625 -12.0625 C 4.328125 -12.226562 4.441406 -12.3125 4.609375 -12.3125 L 7.1875 -12.3125 C 7.351562 -12.3125 7.46875 -12.226562 7.53125 -12.0625 L 11.265625 -0.328125 C 11.273438 -0.304688 11.28125 -0.273438 11.28125 -0.234375 C 11.28125 -0.160156 11.253906 -0.101562 11.203125 -0.0625 C 11.160156 -0.0195312 11.097656 0 11.015625 0 Z M 4.25 -4.015625 C 4.238281 -3.929688 4.269531 -3.890625 4.34375 -3.890625 L 7.453125 -3.890625 C 7.523438 -3.890625 7.554688 -3.929688 7.546875 -4.015625 L 5.953125 -9.375 C 5.941406 -9.414062 5.921875 -9.4375 5.890625 -9.4375 C 5.867188 -9.4375 5.84375 -9.414062 5.8125 -9.375 Z M 4.25 -4.015625 "/></g></g></g><g fill="#f2cc59" fill-opacity="1"><g transform="translate(99.225682, 81.824162)"><g><path d="M 7.890625 0 C 7.742188 0 7.628906 -0.078125 7.546875 -0.234375 L 5.375 -5.015625 C 5.351562 -5.066406 5.3125 -5.09375 5.25 -5.09375 L 3.65625 -5.09375 C 3.582031 -5.09375 3.546875 -5.0625 3.546875 -5 L 3.546875 -0.296875 C 3.546875 -0.0976562 3.445312 0 3.25 0 L 1.375 0 C 1.175781 0 1.078125 -0.0976562 1.078125 -0.296875 L 1.078125 -12.03125 C 1.078125 -12.226562 1.175781 -12.328125 1.375 -12.328125 L 6.3125 -12.328125 C 7.0625 -12.328125 7.71875 -12.171875 8.28125 -11.859375 C 8.851562 -11.546875 9.296875 -11.109375 9.609375 -10.546875 C 9.921875 -9.984375 10.078125 -9.335938 10.078125 -8.609375 C 10.078125 -7.816406 9.875 -7.132812 9.46875 -6.5625 C 9.070312 -5.988281 8.523438 -5.582031 7.828125 -5.34375 C 7.785156 -5.332031 7.757812 -5.3125 7.75 -5.28125 C 7.738281 -5.25 7.742188 -5.222656 7.765625 -5.203125 L 10.09375 -0.359375 C 10.125 -0.304688 10.140625 -0.25 10.140625 -0.1875 C 10.140625 -0.132812 10.113281 -0.0859375 10.0625 -0.046875 C 10.019531 -0.015625 9.957031 0 9.875 0 Z M 3.65625 -10.171875 C 3.582031 -10.171875 3.546875 -10.140625 3.546875 -10.078125 L 3.546875 -7.125 C 3.546875 -7.050781 3.582031 -7.015625 3.65625 -7.015625 L 5.9375 -7.015625 C 6.4375 -7.015625 6.835938 -7.15625 7.140625 -7.4375 C 7.453125 -7.726562 7.609375 -8.109375 7.609375 -8.578125 C 7.609375 -9.046875 7.453125 -9.425781 7.140625 -9.71875 C 6.835938 -10.019531 6.4375 -10.171875 5.9375 -10.171875 Z M 3.65625 -10.171875 "/></g></g></g><g fill="#f2cc59" fill-opacity="1"><g transform="translate(109.316341, 81.824162)"><g><path d="M 8.984375 0 C 8.816406 0 8.707031 -0.0820312 8.65625 -0.25 L 8.15625 -1.875 C 8.144531 -1.9375 8.109375 -1.96875 8.046875 -1.96875 L 3.75 -1.96875 C 3.6875 -1.96875 3.648438 -1.9375 3.640625 -1.875 L 3.140625 -0.25 C 3.085938 -0.0820312 2.976562 0 2.8125 0 L 0.78125 0 C 0.664062 0 0.582031 -0.03125 0.53125 -0.09375 C 0.488281 -0.15625 0.488281 -0.234375 0.53125 -0.328125 L 4.265625 -12.0625 C 4.328125 -12.226562 4.441406 -12.3125 4.609375 -12.3125 L 7.1875 -12.3125 C 7.351562 -12.3125 7.46875 -12.226562 7.53125 -12.0625 L 11.265625 -0.328125 C 11.273438 -0.304688 11.28125 -0.273438 11.28125 -0.234375 C 11.28125 -0.160156 11.253906 -0.101562 11.203125 -0.0625 C 11.160156 -0.0195312 11.097656 0 11.015625 0 Z M 4.25 -4.015625 C 4.238281 -3.929688 4.269531 -3.890625 4.34375 -3.890625 L 7.453125 -3.890625 C 7.523438 -3.890625 7.554688 -3.929688 7.546875 -4.015625 L 5.953125 -9.375 C 5.941406 -9.414062 5.921875 -9.4375 5.890625 -9.4375 C 5.867188 -9.4375 5.84375 -9.414062 5.8125 -9.375 Z M 4.25 -4.015625 "/></g></g></g></svg>