<svg xmlns="http://www.w3.org/2000/svg" xmlns:xlink="http://www.w3.org/1999/xlink" width="500" zoomAndPan="magnify" viewBox="0 0 375 374.999991" height="500" preserveAspectRatio="xMidYMid meet" version="1.0"><defs><g/><clipPath id="d45b88b05b"><path d="M 75.058594 146.0625 L 117 146.0625 L 117 188 L 75.058594 188 Z M 75.058594 146.0625 " clip-rule="nonzero"/></clipPath><clipPath id="7dc61311c0"><path d="M 75.058594 187 L 117 187 L 117 228.5625 L 75.058594 228.5625 Z M 75.058594 187 " clip-rule="nonzero"/></clipPath><clipPath id="43b1394453"><path d="M 116 146.0625 L 157.558594 146.0625 L 157.558594 188 L 116 188 Z M 116 146.0625 " clip-rule="nonzero"/></clipPath><clipPath id="c2e49d2309"><path d="M 116 187 L 157.558594 187 L 157.558594 228.5625 L 116 228.5625 Z M 116 187 " clip-rule="nonzero"/></clipPath></defs><g clip-path="url(#d45b88b05b)"><path fill="#ffac2d" d="M 95.777344 187.496094 C 84.339844 187.496094 75.058594 178.214844 75.058594 166.777344 C 75.058594 155.34375 84.339844 146.0625 95.777344 146.0625 C 107.210938 146.0625 116.492188 155.34375 116.492188 166.777344 C 116.492188 178.214844 107.210938 187.496094 95.777344 187.496094 Z M 95.777344 187.496094 " fill-opacity="1" fill-rule="nonzero"/></g><g clip-path="url(#7dc61311c0)"><path fill="#ffac2d" d="M 116.492188 208.210938 C 116.492188 219.644531 107.210938 228.925781 95.777344 228.925781 C 84.339844 228.925781 75.058594 219.644531 75.058594 208.210938 C 75.058594 196.777344 84.339844 187.496094 95.777344 187.496094 C 107.210938 187.496094 116.492188 196.777344 116.492188 208.210938 Z M 116.492188 208.210938 " fill-opacity="1" fill-rule="nonzero"/></g><g clip-path="url(#43b1394453)"><path fill="#f2cc59" d="M 116.492188 166.777344 C 116.492188 155.34375 125.773438 146.0625 137.207031 146.0625 C 148.640625 146.0625 157.921875 155.34375 157.921875 166.777344 C 157.921875 178.214844 148.640625 187.496094 137.207031 187.496094 C 125.773438 187.496094 116.492188 178.214844 116.492188 166.777344 Z M 116.492188 166.777344 " fill-opacity="1" fill-rule="nonzero"/></g><g clip-path="url(#c2e49d2309)"><path fill="#ffac2d" d="M 157.921875 208.210938 C 157.921875 219.644531 148.640625 228.925781 137.207031 228.925781 C 125.773438 228.925781 116.492188 219.644531 116.492188 208.210938 C 116.492188 196.777344 125.773438 187.496094 137.207031 187.496094 C 148.640625 187.496094 157.921875 196.777344 157.921875 208.210938 Z M 157.921875 208.210938 " fill-opacity="1" fill-rule="nonzero"/></g><g fill="#f2cc59" fill-opacity="1"><g transform="translate(168.297034, 204.560381)"><g><path d="M 22.453125 0 C 22.046875 0 21.769531 -0.203125 21.625 -0.609375 L 20.390625 -4.703125 C 20.359375 -4.847656 20.269531 -4.921875 20.125 -4.921875 L 9.359375 -4.921875 C 9.210938 -4.921875 9.125 -4.847656 9.09375 -4.703125 L 7.875 -0.609375 C 7.71875 -0.203125 7.4375 0 7.03125 0 L 1.9375 0 C 1.664062 0 1.472656 -0.078125 1.359375 -0.234375 C 1.242188 -0.398438 1.226562 -0.597656 1.3125 -0.828125 L 10.6875 -30.15625 C 10.832031 -30.5625 11.109375 -30.765625 11.515625 -30.765625 L 17.984375 -30.765625 C 18.390625 -30.765625 18.664062 -30.5625 18.8125 -30.15625 L 28.171875 -0.828125 C 28.203125 -0.773438 28.21875 -0.691406 28.21875 -0.578125 C 28.21875 -0.398438 28.15625 -0.257812 28.03125 -0.15625 C 27.914062 -0.0507812 27.757812 0 27.5625 0 Z M 10.640625 -10.015625 C 10.609375 -9.816406 10.679688 -9.71875 10.859375 -9.71875 L 18.640625 -9.71875 C 18.816406 -9.71875 18.890625 -9.816406 18.859375 -10.015625 L 14.90625 -23.421875 C 14.875 -23.546875 14.820312 -23.609375 14.75 -23.609375 C 14.675781 -23.609375 14.609375 -23.546875 14.546875 -23.421875 Z M 10.640625 -10.015625 "/></g></g></g><g fill="#f2cc59" fill-opacity="1"><g transform="translate(196.028771, 204.560381)"><g><path d="M 13.015625 -31.125 C 15.234375 -31.125 17.191406 -30.664062 18.890625 -29.75 C 20.597656 -28.84375 21.921875 -27.554688 22.859375 -25.890625 C 23.796875 -24.222656 24.265625 -22.289062 24.265625 -20.09375 L 24.265625 -10.234375 C 24.265625 -7.628906 23.5625 -5.425781 22.15625 -3.625 C 20.75 -1.820312 18.828125 -0.628906 16.390625 -0.046875 C 16.242188 0.015625 16.171875 0.101562 16.171875 0.21875 L 16.171875 3.5625 C 16.171875 4.0625 15.921875 4.3125 15.421875 4.3125 L 10.71875 4.3125 C 10.226562 4.3125 9.984375 4.0625 9.984375 3.5625 L 9.984375 0.265625 C 9.984375 0.148438 9.90625 0.0625 9.75 0 C 7.320312 -0.582031 5.390625 -1.78125 3.953125 -3.59375 C 2.515625 -5.414062 1.796875 -7.628906 1.796875 -10.234375 L 1.796875 -20.09375 C 1.796875 -22.289062 2.265625 -24.210938 3.203125 -25.859375 C 4.140625 -27.515625 5.457031 -28.804688 7.15625 -29.734375 C 8.863281 -30.660156 10.816406 -31.125 13.015625 -31.125 Z M 18.0625 -20.390625 C 18.0625 -22.003906 17.597656 -23.304688 16.671875 -24.296875 C 15.753906 -25.296875 14.535156 -25.796875 13.015625 -25.796875 C 11.515625 -25.796875 10.300781 -25.296875 9.375 -24.296875 C 8.457031 -23.304688 8 -22.003906 8 -20.390625 L 8 -10.375 C 8 -8.757812 8.457031 -7.453125 9.375 -6.453125 C 10.300781 -5.460938 11.515625 -4.96875 13.015625 -4.96875 C 14.535156 -4.96875 15.753906 -5.460938 16.671875 -6.453125 C 17.597656 -7.453125 18.0625 -8.757812 18.0625 -10.375 Z M 18.0625 -20.390625 "/></g></g></g><g fill="#f2cc59" fill-opacity="1"><g transform="translate(220.332475, 204.560381)"><g><path d="M 22.453125 0 C 22.046875 0 21.769531 -0.203125 21.625 -0.609375 L 20.390625 -4.703125 C 20.359375 -4.847656 20.269531 -4.921875 20.125 -4.921875 L 9.359375 -4.921875 C 9.210938 -4.921875 9.125 -4.847656 9.09375 -4.703125 L 7.875 -0.609375 C 7.71875 -0.203125 7.4375 0 7.03125 0 L 1.9375 0 C 1.664062 0 1.472656 -0.078125 1.359375 -0.234375 C 1.242188 -0.398438 1.226562 -0.597656 1.3125 -0.828125 L 10.6875 -30.15625 C 10.832031 -30.5625 11.109375 -30.765625 11.515625 -30.765625 L 17.984375 -30.765625 C 18.390625 -30.765625 18.664062 -30.5625 18.8125 -30.15625 L 28.171875 -0.828125 C 28.203125 -0.773438 28.21875 -0.691406 28.21875 -0.578125 C 28.21875 -0.398438 28.15625 -0.257812 28.03125 -0.15625 C 27.914062 -0.0507812 27.757812 0 27.5625 0 Z M 10.640625 -10.015625 C 10.609375 -9.816406 10.679688 -9.71875 10.859375 -9.71875 L 18.640625 -9.71875 C 18.816406 -9.71875 18.890625 -9.816406 18.859375 -10.015625 L 14.90625 -23.421875 C 14.875 -23.546875 14.820312 -23.609375 14.75 -23.609375 C 14.675781 -23.609375 14.609375 -23.546875 14.546875 -23.421875 Z M 10.640625 -10.015625 "/></g></g></g><g fill="#f2cc59" fill-opacity="1"><g transform="translate(248.064209, 204.560381)"><g><path d="M 19.734375 0 C 19.347656 0 19.054688 -0.191406 18.859375 -0.578125 L 13.453125 -12.53125 C 13.390625 -12.675781 13.285156 -12.75 13.140625 -12.75 L 9.140625 -12.75 C 8.960938 -12.75 8.875 -12.660156 8.875 -12.484375 L 8.875 -0.75 C 8.875 -0.25 8.625 0 8.125 0 L 3.421875 0 C 2.929688 0 2.6875 -0.25 2.6875 -0.75 L 2.6875 -30.0625 C 2.6875 -30.5625 2.929688 -30.8125 3.421875 -30.8125 L 15.78125 -30.8125 C 17.65625 -30.8125 19.300781 -30.421875 20.71875 -29.640625 C 22.144531 -28.867188 23.242188 -27.78125 24.015625 -26.375 C 24.796875 -24.96875 25.1875 -23.351562 25.1875 -21.53125 C 25.1875 -19.539062 24.6875 -17.828125 23.6875 -16.390625 C 22.695312 -14.953125 21.320312 -13.941406 19.5625 -13.359375 C 19.46875 -13.328125 19.40625 -13.273438 19.375 -13.203125 C 19.351562 -13.128906 19.367188 -13.066406 19.421875 -13.015625 L 25.234375 -0.875 C 25.316406 -0.757812 25.359375 -0.628906 25.359375 -0.484375 C 25.359375 -0.335938 25.300781 -0.21875 25.1875 -0.125 C 25.070312 -0.0390625 24.910156 0 24.703125 0 Z M 9.140625 -25.453125 C 8.960938 -25.453125 8.875 -25.363281 8.875 -25.1875 L 8.875 -17.796875 C 8.875 -17.617188 8.960938 -17.53125 9.140625 -17.53125 L 14.859375 -17.53125 C 16.085938 -17.53125 17.085938 -17.890625 17.859375 -18.609375 C 18.640625 -19.328125 19.03125 -20.273438 19.03125 -21.453125 C 19.03125 -22.617188 18.640625 -23.578125 17.859375 -24.328125 C 17.085938 -25.078125 16.085938 -25.453125 14.859375 -25.453125 Z M 9.140625 -25.453125 "/></g></g></g><g fill="#f2cc59" fill-opacity="1"><g transform="translate(273.290855, 204.560381)"><g><path d="M 22.453125 0 C 22.046875 0 21.769531 -0.203125 21.625 -0.609375 L 20.390625 -4.703125 C 20.359375 -4.847656 20.269531 -4.921875 20.125 -4.921875 L 9.359375 -4.921875 C 9.210938 -4.921875 9.125 -4.847656 9.09375 -4.703125 L 7.875 -0.609375 C 7.71875 -0.203125 7.4375 0 7.03125 0 L 1.9375 0 C 1.664062 0 1.472656 -0.078125 1.359375 -0.234375 C 1.242188 -0.398438 1.226562 -0.597656 1.3125 -0.828125 L 10.6875 -30.15625 C 10.832031 -30.5625 11.109375 -30.765625 11.515625 -30.765625 L 17.984375 -30.765625 C 18.390625 -30.765625 18.664062 -30.5625 18.8125 -30.15625 L 28.171875 -0.828125 C 28.203125 -0.773438 28.21875 -0.691406 28.21875 -0.578125 C 28.21875 -0.398438 28.15625 -0.257812 28.03125 -0.15625 C 27.914062 -0.0507812 27.757812 0 27.5625 0 Z M 10.640625 -10.015625 C 10.609375 -9.816406 10.679688 -9.71875 10.859375 -9.71875 L 18.640625 -9.71875 C 18.816406 -9.71875 18.890625 -9.816406 18.859375 -10.015625 L 14.90625 -23.421875 C 14.875 -23.546875 14.820312 -23.609375 14.75 -23.609375 C 14.675781 -23.609375 14.609375 -23.546875 14.546875 -23.421875 Z M 10.640625 -10.015625 "/></g></g></g></svg>